<svg id="visual" viewBox="0 0 900 200" width="900" height="200" xmlns="http://www.w3.org/2000/svg" xmlns:xlink="http://www.w3.org/1999/xlink" version="1.1"><rect x="0" y="0" width="900" height="200" fill="#B916BE"></rect><path d="M0 135L21.5 133.5C43 132 86 129 128.8 131C171.7 133 214.3 140 257.2 140C300 140 343 133 385.8 129.8C428.7 126.7 471.3 127.3 514.2 129.5C557 131.7 600 135.3 642.8 136.7C685.7 138 728.3 137 771.2 135.3C814 133.7 857 131.3 878.5 130.2L900 129L900 201L878.5 201C857 201 814 201 771.2 201C728.3 201 685.7 201 642.8 201C600 201 557 201 514.2 201C471.3 201 428.7 201 385.8 201C343 201 300 201 257.2 201C214.3 201 171.7 201 128.8 201C86 201 43 201 21.5 201L0 201Z" fill="#000000"></path><path d="M0 151L21.5 152.5C43 154 86 157 128.8 159.7C171.7 162.3 214.3 164.7 257.2 164C300 163.3 343 159.7 385.8 156.3C428.7 153 471.3 150 514.2 152.3C557 154.7 600 162.3 642.8 161.5C685.7 160.7 728.3 151.3 771.2 147.2C814 143 857 144 878.5 144.5L900 145L900 201L878.5 201C857 201 814 201 771.2 201C728.3 201 685.7 201 642.8 201C600 201 557 201 514.2 201C471.3 201 428.7 201 385.8 201C343 201 300 201 257.2 201C214.3 201 171.7 201 128.8 201C86 201 43 201 21.5 201L0 201Z" fill="#920000"></path><path d="M0 178L21.5 177.8C43 177.7 86 177.3 128.8 177.5C171.7 177.7 214.3 178.3 257.2 176C300 173.7 343 168.3 385.8 168.7C428.7 169 471.3 175 514.2 176.8C557 178.7 600 176.3 642.8 176C685.7 175.7 728.3 177.3 771.2 178C814 178.7 857 178.3 878.5 178.2L900 178L900 201L878.5 201C857 201 814 201 771.2 201C728.3 201 685.7 201 642.8 201C600 201 557 201 514.2 201C471.3 201 428.7 201 385.8 201C343 201 300 201 257.2 201C214.3 201 171.7 201 128.8 201C86 201 43 201 21.5 201L0 201Z" fill="#e74514"></path></svg>